<svg width="55" height="55" viewBox="0 0 55 55" fill="none" xmlns="http://www.w3.org/2000/svg">
<rect width="55" height="55" rx="27.5" fill="#23BE87"/>
<g clip-path="url(#clip0_34_61)">
<path fill-rule="evenodd" clip-rule="evenodd" d="M34.4887 19.5127L18.7487 25.204L23.9925 28.239L28.6162 23.614C28.8508 23.3796 29.1688 23.248 29.5004 23.2481C29.832 23.2482 30.15 23.3801 30.3844 23.6146C30.6188 23.8492 30.7504 24.1672 30.7502 24.4988C30.7501 24.8304 30.6183 25.1483 30.3837 25.3827L25.7587 30.0077L28.7962 35.2502L34.4887 19.5127ZM34.8925 16.7077C36.3862 16.1665 37.8337 17.614 37.2925 19.1077L30.69 37.364C30.1475 38.8615 28.1025 39.044 27.3037 37.6652L23.2825 30.7177L16.335 26.6965C14.9562 25.8977 15.1387 23.8527 16.6362 23.3102L34.8925 16.7077Z" fill="white"/>
</g>
<defs>
<clipPath id="clip0_34_61">
<rect width="30" height="30" fill="white" transform="translate(12 12)"/>
</clipPath>
</defs>
</svg>
