<svg width="40" height="40" viewBox="0 0 40 40"  xmlns="http://www.w3.org/2000/svg">
<path d="M20.32 28.2616C21.1244 28.2062 21.9221 28.0779 22.7033 27.8783C23.6667 28.1685 24.6838 28.2347 25.6767 28.0716L25.7933 28.0616C26.1483 28.0616 26.6133 28.265 27.2933 28.6933V27.9883C27.293 27.8658 27.3257 27.7455 27.3878 27.6399C27.45 27.5343 27.5394 27.4474 27.6467 27.3883C27.9422 27.2238 28.2155 27.0366 28.4667 26.8266C29.4533 26.0016 30.0117 24.9 30.0117 23.7333C30.0117 23.35 29.95 22.9666 29.83 22.6C30.1281 22.0514 30.3682 21.4733 30.5467 20.875C31.1183 21.7183 31.425 22.715 31.43 23.735C31.43 25.3183 30.6817 26.7966 29.3883 27.8766C29.1728 28.0566 28.9461 28.2233 28.7083 28.3766V30.0233C28.7083 30.59 28.0467 30.915 27.5783 30.5783C27.1361 30.2516 26.6794 29.9472 26.2083 29.665C26.0729 29.5851 25.932 29.5149 25.7867 29.455C25.3931 29.5122 24.996 29.5411 24.5983 29.5416C23.0762 29.553 21.5857 29.1071 20.32 28.2616ZM11.7867 24.9666C9.74832 23.2616 8.57166 20.9366 8.57166 18.445C8.57166 13.355 13.4383 9.28662 19.38 9.28662C25.3217 9.28662 30.1883 13.3533 30.1883 18.445C30.1883 23.535 25.3217 27.6033 19.38 27.6033C18.7187 27.6044 18.0584 27.5537 17.405 27.4516C17.125 27.515 16.005 28.1716 14.3933 29.335C13.81 29.7566 12.9817 29.3483 12.9817 28.64V25.8283C12.5633 25.5708 12.1627 25.2828 11.7867 24.9666ZM17.445 25.7166C17.495 25.7166 17.545 25.7211 17.595 25.73C18.1783 25.8266 18.7739 25.875 19.3817 25.875C24.4 25.875 28.4183 22.5166 28.4183 18.445C28.4183 14.3733 24.4 11.0166 19.38 11.0166C14.3633 11.0166 10.3433 14.375 10.3433 18.4466C10.3433 20.415 11.2817 22.27 12.9417 23.6566C13.3594 24.0066 13.815 24.3194 14.3083 24.595C14.4422 24.6695 14.5539 24.7782 14.632 24.9099C14.7102 25.0417 14.7521 25.1918 14.7533 25.345V26.965C16.0283 26.12 16.8667 25.72 17.4433 25.72" fill="black"/>
<path d="M15 20.0002C15.3788 20.0002 15.7421 19.8497 16.01 19.5819C16.2778 19.314 16.4283 18.9507 16.4283 18.5719C16.4283 18.1931 16.2778 17.8298 16.01 17.5619C15.7421 17.294 15.3788 17.1436 15 17.1436C14.6212 17.1436 14.2579 17.294 13.99 17.5619C13.7221 17.8298 13.5717 18.1931 13.5717 18.5719C13.5717 18.9507 13.7221 19.314 13.99 19.5819C14.2579 19.8497 14.6212 20.0002 15 20.0002ZM19.6433 20.0002C20.0221 20.0002 20.3854 19.8497 20.6533 19.5819C20.9212 19.314 21.0717 18.9507 21.0717 18.5719C21.0717 18.1931 20.9212 17.8298 20.6533 17.5619C20.3854 17.294 20.0221 17.1436 19.6433 17.1436C19.2645 17.1436 18.9012 17.294 18.6333 17.5619C18.3655 17.8298 18.215 18.1931 18.215 18.5719C18.215 18.9507 18.3655 19.314 18.6333 19.5819C18.9012 19.8497 19.2645 20.0002 19.6433 20.0002ZM24.2867 20.0019C24.6655 20.0019 25.0288 19.8514 25.2966 19.5835C25.5645 19.3157 25.715 18.9524 25.715 18.5736C25.715 18.1947 25.5645 17.8314 25.2966 17.5636C25.0288 17.2957 24.6655 17.1452 24.2867 17.1452C23.9078 17.1452 23.5445 17.2957 23.2767 17.5636C23.0088 17.8314 22.8583 18.1947 22.8583 18.5736C22.8583 18.9524 23.0088 19.3157 23.2767 19.5835C23.5445 19.8514 23.9078 20.0019 24.2867 20.0019Z" fill="black"/>
</svg>
