<svg width="40" height="40" viewBox="0 0 40 40" fill="none" xmlns="http://www.w3.org/2000/svg">
<path d="M20.3201 28.2616C21.1245 28.2062 21.9222 28.0779 22.7034 27.8783C23.6669 28.1685 24.6839 28.2347 25.6768 28.0716L25.7934 28.0616C26.1484 28.0616 26.6134 28.265 27.2934 28.6933V27.9883C27.2931 27.8658 27.3258 27.7455 27.388 27.6399C27.4501 27.5343 27.5395 27.4474 27.6468 27.3883C27.9423 27.2238 28.2157 27.0366 28.4668 26.8266C29.4534 26.0016 30.0118 24.9 30.0118 23.7333C30.0118 23.35 29.9501 22.9666 29.8301 22.6C30.1282 22.0514 30.3684 21.4733 30.5468 20.875C31.1184 21.7183 31.4251 22.715 31.4301 23.735C31.4301 25.3183 30.6818 26.7966 29.3884 27.8766C29.1729 28.0566 28.9462 28.2233 28.7084 28.3766V30.0233C28.7084 30.59 28.0468 30.915 27.5784 30.5783C27.1362 30.2516 26.6796 29.9472 26.2084 29.665C26.073 29.5851 25.9321 29.5149 25.7868 29.455C25.3932 29.5122 24.9961 29.5411 24.5984 29.5416C23.0763 29.553 21.5859 29.1071 20.3201 28.2616ZM11.7868 24.9666C9.74844 23.2616 8.57178 20.9366 8.57178 18.445C8.57178 13.355 13.4384 9.28662 19.3801 9.28662C25.3218 9.28662 30.1884 13.3533 30.1884 18.445C30.1884 23.535 25.3218 27.6033 19.3801 27.6033C18.7188 27.6044 18.0585 27.5537 17.4051 27.4516C17.1251 27.515 16.0051 28.1716 14.3934 29.335C13.8101 29.7566 12.9818 29.3483 12.9818 28.64V25.8283C12.5634 25.5708 12.1628 25.2828 11.7868 24.9666ZM17.4451 25.7166C17.4951 25.7166 17.5451 25.7211 17.5951 25.73C18.1784 25.8266 18.774 25.875 19.3818 25.875C24.4001 25.875 28.4184 22.5166 28.4184 18.445C28.4184 14.3733 24.4001 11.0166 19.3801 11.0166C14.3634 11.0166 10.3434 14.375 10.3434 18.4466C10.3434 20.415 11.2818 22.27 12.9418 23.6566C13.3596 24.0066 13.8151 24.3194 14.3084 24.595C14.4423 24.6695 14.554 24.7782 14.6322 24.9099C14.7103 25.0417 14.7522 25.1918 14.7534 25.345V26.965C16.0284 26.12 16.8668 25.72 17.4434 25.72" fill="white"/>
<path d="M15.0001 20.0002C15.3789 20.0002 15.7422 19.8497 16.0101 19.5819C16.278 19.314 16.4284 18.9507 16.4284 18.5719C16.4284 18.1931 16.278 17.8298 16.0101 17.5619C15.7422 17.294 15.3789 17.1436 15.0001 17.1436C14.6213 17.1436 14.258 17.294 13.9901 17.5619C13.7223 17.8298 13.5718 18.1931 13.5718 18.5719C13.5718 18.9507 13.7223 19.314 13.9901 19.5819C14.258 19.8497 14.6213 20.0002 15.0001 20.0002ZM19.6434 20.0002C20.0223 20.0002 20.3856 19.8497 20.6534 19.5819C20.9213 19.314 21.0718 18.9507 21.0718 18.5719C21.0718 18.1931 20.9213 17.8298 20.6534 17.5619C20.3856 17.294 20.0223 17.1436 19.6434 17.1436C19.2646 17.1436 18.9013 17.294 18.6335 17.5619C18.3656 17.8298 18.2151 18.1931 18.2151 18.5719C18.2151 18.9507 18.3656 19.314 18.6335 19.5819C18.9013 19.8497 19.2646 20.0002 19.6434 20.0002ZM24.2868 20.0019C24.6656 20.0019 25.0289 19.8514 25.2968 19.5835C25.5646 19.3157 25.7151 18.9524 25.7151 18.5736C25.7151 18.1947 25.5646 17.8314 25.2968 17.5636C25.0289 17.2957 24.6656 17.1452 24.2868 17.1452C23.908 17.1452 23.5447 17.2957 23.2768 17.5636C23.0089 17.8314 22.8584 18.1947 22.8584 18.5736C22.8584 18.9524 23.0089 19.3157 23.2768 19.5835C23.5447 19.8514 23.908 20.0019 24.2868 20.0019Z" fill="white"/>
</svg>
