<svg width="55" height="55" viewBox="0 0 55 55" fill="none" xmlns="http://www.w3.org/2000/svg">
<rect x="0.5" y="0.5" width="54" height="54" rx="27" fill="white" stroke="#28B381"/>
<g clip-path="url(#clip0_39_273)">
<path d="M23.3333 30.6667H24.3867L24.76 30.3067C23.4533 28.7867 22.6667 26.8133 22.6667 24.6667C22.6667 19.88 26.5467 16 31.3333 16C36.12 16 40 19.88 40 24.6667C40 29.4533 36.12 33.3333 31.3333 33.3333C29.1867 33.3333 27.2133 32.5467 25.6933 31.24L25.3333 31.6133V32.6667L18.6667 39.32L16.68 37.3333L23.3333 30.6667ZM31.3333 30.6667C34.6533 30.6667 37.3333 27.9867 37.3333 24.6667C37.3333 21.3467 34.6533 18.6667 31.3333 18.6667C28.0133 18.6667 25.3333 21.3467 25.3333 24.6667C25.3333 27.9867 28.0133 30.6667 31.3333 30.6667Z" fill="#23BE87"/>
</g>
<defs>
<clipPath id="clip0_39_273">
<rect width="32" height="32" fill="white" transform="matrix(-1 0 0 1 44 12)"/>
</clipPath>
</defs>
</svg>
