<svg width="25" height="25" viewBox="0 0 25 25" fill="none" xmlns="http://www.w3.org/2000/svg">
<circle cx="12.5" cy="12.5" r="12" fill="white" stroke="#23BE87"/>
<path d="M7.43154 9.19669L12.1165 14.9604C12.2188 15.0869 12.3567 15.1578 12.5005 15.1578C12.6443 15.1578 12.7823 15.0869 12.8845 14.9604L17.5695 9.19794C17.6724 9.0716 17.8108 9.0008 17.955 9.0008C18.0992 9.0008 18.2377 9.0716 18.3405 9.19794C18.3912 9.25966 18.4314 9.33343 18.4589 9.41491C18.4864 9.49638 18.5006 9.5839 18.5006 9.67232C18.5006 9.76074 18.4864 9.84826 18.4589 9.92973C18.4314 10.0112 18.3912 10.085 18.3405 10.1467L13.6565 15.9092C13.348 16.2879 12.9329 16.5 12.5005 16.5C12.0682 16.5 11.6531 16.2879 11.3445 15.9092L6.66054 10.1467C6.60974 10.085 6.56936 10.0111 6.54178 9.92952C6.51421 9.84793 6.5 9.76026 6.5 9.67169C6.5 9.58312 6.51421 9.49546 6.54178 9.41387C6.56936 9.33228 6.60974 9.25843 6.66054 9.19669C6.7634 9.07035 6.90183 8.99955 7.04604 8.99955C7.19025 8.99955 7.32869 9.07035 7.43154 9.19669Z" fill="#23BE87"/>
</svg>
