<svg width="20" height="20" viewBox="0 0 25 25" fill="none" xmlns="http://www.w3.org/2000/svg">
<path d="M12.3228 9.375L15.6248 12.6667V12.5C15.6248 11.6712 15.2956 10.8763 14.7095 10.2903C14.1235 9.70424 13.3286 9.375 12.4998 9.375H12.3228ZM7.84359 10.2083L9.45817 11.8229C9.40609 12.0417 9.37484 12.2604 9.37484 12.5C9.37484 13.3288 9.70408 14.1237 10.2901 14.7097C10.8762 15.2958 11.671 15.625 12.4998 15.625C12.729 15.625 12.9582 15.5937 13.1769 15.5417L14.7915 17.1562C14.0936 17.5 13.3228 17.7083 12.4998 17.7083C11.1185 17.7083 9.79374 17.1596 8.81699 16.1828C7.84024 15.2061 7.2915 13.8813 7.2915 12.5C7.2915 11.6771 7.49984 10.9062 7.84359 10.2083ZM2.08317 4.44792L4.45817 6.82292L4.92692 7.29167C3.20817 8.64583 1.854 10.4167 1.0415 12.5C2.84359 17.0729 7.2915 20.3125 12.4998 20.3125C14.1144 20.3125 15.6561 20 17.0623 19.4375L17.5103 19.875L20.5519 22.9167L21.8748 21.5937L3.40609 3.125M12.4998 7.29167C13.8812 7.29167 15.2059 7.8404 16.1827 8.81715C17.1594 9.7939 17.7082 11.1187 17.7082 12.5C17.7082 13.1667 17.5728 13.8125 17.3332 14.3958L20.3853 17.4479C21.9478 16.1458 23.1978 14.4375 23.9582 12.5C22.1561 7.92708 17.7082 4.6875 12.4998 4.6875C11.0415 4.6875 9.64567 4.94792 8.33317 5.41667L10.5936 7.65625C11.1873 7.42708 11.8228 7.29167 12.4998 7.29167Z" fill="gray"/>
</svg>
