<svg width="20" height="20" viewBox="0 0 20 20" fill="none" xmlns="http://www.w3.org/2000/svg">
<g clip-path="url(#clip0_17_494)">
<path d="M16.8391 14.9998H13.9741V11.9538C13.9781 11.7688 13.9087 11.5898 13.7811 11.4558C13.7222 11.3903 13.6499 11.3381 13.5692 11.3028C13.4885 11.2674 13.4012 11.2497 13.3131 11.2508C13.2248 11.2496 13.1373 11.2672 13.0564 11.3026C12.9755 11.3379 12.9031 11.3902 12.8441 11.4558C12.7165 11.5898 12.6471 11.7688 12.6511 11.9538V15.0008H9.9331C9.845 14.9997 9.75767 15.0174 9.67697 15.0528C9.59626 15.0881 9.52403 15.1403 9.4651 15.2058C9.33748 15.3398 9.26809 15.5188 9.2721 15.7038C9.26809 15.8888 9.33748 16.0678 9.4651 16.2018C9.52403 16.2673 9.59626 16.3195 9.67697 16.3549C9.75767 16.3902 9.845 16.4079 9.9331 16.4068H12.6511V19.2968C12.6471 19.4818 12.7165 19.6608 12.8441 19.7948C12.9031 19.8604 12.9755 19.9127 13.0564 19.9481C13.1373 19.9834 13.2248 20.0011 13.3131 19.9998C13.4961 19.9998 13.6531 19.9318 13.7811 19.7948C13.9087 19.6608 13.9781 19.4818 13.9741 19.2968V16.4068H16.8391C16.9272 16.4079 17.0145 16.3901 17.0952 16.3548C17.1759 16.3194 17.2481 16.2673 17.3071 16.2018C17.4347 16.0678 17.5041 15.8888 17.5001 15.7038C17.5041 15.5188 17.4347 15.3398 17.3071 15.2058C17.2482 15.1403 17.176 15.0881 17.0952 15.0528C17.0145 15.0174 16.9272 14.9997 16.8391 15.0008M17.3551 5.02781L13.3301 0.480811L12.8901 0.00181077H3.7801C3.6101 0.00181077 3.4201 -0.00818923 3.2541 0.0188108C3.05494 0.0470906 2.87292 0.146992 2.7421 0.299811C2.4611 0.617811 2.5021 1.01681 2.5021 1.40781V18.5928C2.5021 18.9838 2.4571 19.4068 2.7421 19.7028C3.0271 19.9988 3.2181 19.9988 3.5851 19.9988H8.6101C8.69837 20 8.78586 19.9823 8.86675 19.947C8.94763 19.9116 9.02003 19.8594 9.0791 19.7938C9.20673 19.6598 9.27612 19.4808 9.2721 19.2958C9.27612 19.1108 9.20673 18.9318 9.0791 18.7978C9.02007 18.7322 8.94768 18.6799 8.86678 18.6446C8.78589 18.6092 8.69838 18.5916 8.6101 18.5928H3.8451L3.8391 1.36381H11.1141V4.95681C11.1141 5.34781 11.2661 5.69981 11.5051 5.95281C11.7451 6.20581 12.0751 6.36281 12.4421 6.36281H16.1771V10.5478C16.1731 10.7328 16.2425 10.9118 16.3701 11.0458C16.429 11.1113 16.5013 11.1635 16.582 11.1988C16.6627 11.2342 16.75 11.2519 16.8381 11.2508C17.0221 11.2508 17.1781 11.1818 17.3071 11.0458C17.4344 10.9117 17.5034 10.7327 17.4991 10.5478V5.47481L17.5001 5.19581L17.3551 5.02781ZM12.5181 4.85581C12.4771 4.80281 12.4521 4.70981 12.4431 4.57581V1.51981L15.5021 4.95681H12.7601C12.6401 4.94081 12.5601 4.90681 12.5181 4.85381" fill="white"/>
</g>
<defs>
<clipPath id="clip0_17_494">
<rect width="20" height="20" fill="white"/>
</clipPath>
</defs>
</svg>
