<svg width="20" height="20" viewBox="0 0 20 20" fill="none" xmlns="http://www.w3.org/2000/svg">
<g clip-path="url(#clip0_17_426)">
<path d="M16.839 14.9998H13.974V11.9538C13.978 11.7688 13.9086 11.5898 13.781 11.4558C13.7221 11.3903 13.6499 11.3381 13.5691 11.3028C13.4884 11.2674 13.4011 11.2497 13.313 11.2508C13.2247 11.2496 13.1372 11.2672 13.0563 11.3026C12.9754 11.3379 12.903 11.3902 12.844 11.4558C12.7164 11.5898 12.647 11.7688 12.651 11.9538V15.0008H9.93301C9.84491 14.9997 9.75758 15.0174 9.67687 15.0528C9.59617 15.0881 9.52394 15.1403 9.46501 15.2058C9.33739 15.3398 9.268 15.5188 9.27201 15.7038C9.268 15.8888 9.33739 16.0678 9.46501 16.2018C9.52394 16.2673 9.59617 16.3195 9.67687 16.3549C9.75758 16.3902 9.84491 16.4079 9.93301 16.4068H12.651V19.2968C12.647 19.4818 12.7164 19.6608 12.844 19.7948C12.903 19.8604 12.9754 19.9127 13.0563 19.9481C13.1372 19.9834 13.2247 20.0011 13.313 19.9998C13.496 19.9998 13.653 19.9318 13.781 19.7948C13.9086 19.6608 13.978 19.4818 13.974 19.2968V16.4068H16.839C16.9271 16.4079 17.0144 16.3901 17.0951 16.3548C17.1758 16.3194 17.248 16.2673 17.307 16.2018C17.4346 16.0678 17.504 15.8888 17.5 15.7038C17.504 15.5188 17.4346 15.3398 17.307 15.2058C17.2481 15.1403 17.1759 15.0881 17.0952 15.0528C17.0144 15.0174 16.9271 14.9997 16.839 15.0008M17.355 5.02781L13.33 0.480811L12.89 0.00181077H3.78001C3.61001 0.00181077 3.42001 -0.00818923 3.25401 0.0188108C3.05485 0.0470906 2.87282 0.146992 2.74201 0.299811C2.46101 0.617811 2.50201 1.01681 2.50201 1.40781V18.5928C2.50201 18.9838 2.45701 19.4068 2.74201 19.7028C3.02701 19.9988 3.21801 19.9988 3.58501 19.9988H8.61001C8.69827 20 8.78577 19.9823 8.86665 19.947C8.94754 19.9116 9.01994 19.8594 9.07901 19.7938C9.20663 19.6598 9.27602 19.4808 9.27201 19.2958C9.27602 19.1108 9.20663 18.9318 9.07901 18.7978C9.01998 18.7322 8.94758 18.6799 8.86669 18.6446C8.7858 18.6092 8.69828 18.5916 8.61001 18.5928H3.84501L3.83901 1.36381H11.114V4.95681C11.114 5.34781 11.266 5.69981 11.505 5.95281C11.745 6.20581 12.075 6.36281 12.442 6.36281H16.177V10.5478C16.173 10.7328 16.2424 10.9118 16.37 11.0458C16.4289 11.1113 16.5012 11.1635 16.5819 11.1988C16.6626 11.2342 16.7499 11.2519 16.838 11.2508C17.022 11.2508 17.178 11.1818 17.307 11.0458C17.4343 10.9117 17.5033 10.7327 17.499 10.5478V5.47481L17.5 5.19581L17.355 5.02781ZM12.518 4.85581C12.477 4.80281 12.452 4.70981 12.443 4.57581V1.51981L15.502 4.95681H12.76C12.64 4.94081 12.56 4.90681 12.518 4.85381" fill="black"/>
</g>
<defs>
<clipPath id="clip0_17_426">
<rect width="20" height="20" fill="white"/>
</clipPath>
</defs>
</svg>
