<svg width="25" height="25" viewBox="0 0 25 25"  xmlns="http://www.w3.org/2000/svg">
<path d="M23.9258 10.8047C23.7808 10.6037 23.59 10.44 23.3693 10.3273C23.1485 10.2145 22.9041 10.1559 22.6562 10.1562H21.0938V8.59375C21.0938 8.17935 20.9291 7.78192 20.6361 7.4889C20.3431 7.19587 19.9457 7.03125 19.5312 7.03125H12.7607L10.0527 5C9.78181 4.79803 9.45315 4.68848 9.11523 4.6875H3.90625C3.49185 4.6875 3.09442 4.85212 2.8014 5.14515C2.50837 5.43817 2.34375 5.8356 2.34375 6.25V20.3125C2.34375 20.5197 2.42606 20.7184 2.57257 20.8649C2.71909 21.0114 2.9178 21.0938 3.125 21.0938H20.6152C20.7792 21.0938 20.939 21.0422 21.0721 20.9463C21.2051 20.8504 21.3046 20.7151 21.3564 20.5596L24.1387 12.2129C24.2169 11.978 24.2384 11.728 24.2014 11.4832C24.1644 11.2384 24.07 11.0059 23.9258 10.8047ZM9.11523 6.25L12.0312 8.4375C12.1665 8.53892 12.331 8.59375 12.5 8.59375H19.5312V10.1562H6.81348C6.48552 10.1562 6.16587 10.2594 5.89981 10.4511C5.63375 10.6429 5.43477 10.9135 5.33105 11.2246L3.90625 15.498V6.25H9.11523ZM20.0527 19.5312H4.20898L6.81348 11.7188H22.6562L20.0527 19.5312Z" fill="black"/>
</svg>
