<svg width="20" height="20" viewBox="0 0 20 20" fill="none" xmlns="http://www.w3.org/2000/svg">
<g clip-path="url(#clip0_17_424)">
<path d="M15.511 9.409C15.888 9.409 16.193 9.708 16.193 10.077V13.041H19.225C19.603 13.041 19.909 13.341 19.909 13.709C19.9066 13.8881 19.8333 14.059 19.705 14.184C19.5768 14.3091 19.4041 14.3781 19.225 14.376L16.193 14.375V17.34C16.193 17.71 15.888 18.009 15.511 18.009C15.4223 18.0099 15.3342 17.9933 15.2519 17.9602C15.1696 17.9271 15.0946 17.878 15.0313 17.8159C14.9679 17.7538 14.9175 17.6797 14.8828 17.5981C14.8481 17.5164 14.8298 17.4287 14.829 17.34L14.828 14.375H11.797C11.6181 14.3771 11.4456 14.3082 11.3173 14.1834C11.1891 14.0585 11.1156 13.8879 11.113 13.709C11.113 13.34 11.419 13.042 11.797 13.042L14.828 13.041V10.077C14.828 9.708 15.134 9.409 15.511 9.409ZM1.417 2L7.533 2.002C7.963 2.03 8.316 2.142 8.58 2.372C8.806 2.57 8.972 2.834 9.098 3.178L9.478 4.348C9.49145 4.38898 9.50083 4.43118 9.506 4.474H19.316C19.694 4.474 20 4.773 20 5.141V8.721C19.9976 8.90012 19.9243 9.07097 19.796 9.19603C19.6678 9.32109 19.4951 9.39013 19.316 9.388C19.1371 9.38987 18.9647 9.3207 18.8366 9.19567C18.7086 9.07064 18.6354 8.89994 18.633 8.721V5.808H1.367V16.176C1.371 16.386 1.369 16.479 1.417 16.549C1.454 16.605 1.484 16.616 1.567 16.619H10.524C10.901 16.619 11.207 16.917 11.207 17.286C11.2046 17.4649 11.1314 17.6356 11.0034 17.7607C10.8753 17.8857 10.7029 17.9549 10.524 17.953H1.577L1.46 17.943C0.924 17.853 0.52 17.653 0.283 17.289C0.093 16.996 0.007 16.631 0 16.186V5.137L0.003 3.315C0.039 2.96 0.158 2.655 0.379 2.42C0.623 2.159 0.964 2.03 1.417 2ZM1.464 3.333C1.38 3.338 1.374 3.357 1.368 3.38L1.367 4.474H8.084L7.802 3.604C7.756 3.478 7.718 3.405 7.668 3.367C7.619 3.329 7.594 3.343 7.486 3.334L1.464 3.333Z" fill="black"/>
</g>
<defs>
<clipPath id="clip0_17_424">
<rect width="20" height="20" fill="white"/>
</clipPath>
</defs>
</svg>
