<svg width="75" height="46" viewBox="0 0 74 46" fill="none" xmlns="http://www.w3.org/2000/svg">
<path d="M1.155 12.68C1.155 10.2533 1.68 8.095 2.73 6.205C3.78 4.29167 5.23833 2.81 7.105 1.76C8.995 0.686665 11.13 0.149999 13.51 0.149999C16.4267 0.149999 18.9233 0.919998 21 2.46C23.0767 4 24.465 6.1 25.165 8.76H18.585C18.095 7.73333 17.395 6.95167 16.485 6.415C15.5983 5.87833 14.5833 5.61 13.44 5.61C11.5967 5.61 10.1033 6.25167 8.96 7.535C7.81667 8.81833 7.245 10.5333 7.245 12.68C7.245 14.8267 7.81667 16.5417 8.96 17.825C10.1033 19.1083 11.5967 19.75 13.44 19.75C14.5833 19.75 15.5983 19.4817 16.485 18.945C17.395 18.4083 18.095 17.6267 18.585 16.6H25.165C24.465 19.26 23.0767 21.36 21 22.9C18.9233 24.4167 16.4267 25.175 13.51 25.175C11.13 25.175 8.995 24.65 7.105 23.6C5.23833 22.5267 3.78 21.045 2.73 19.155C1.68 17.265 1.155 15.1067 1.155 12.68ZM40.4502 25.245C38.1402 25.245 36.0168 24.7083 34.0802 23.635C32.1668 22.5617 30.6385 21.0683 29.4952 19.155C28.3752 17.2183 27.8152 15.0483 27.8152 12.645C27.8152 10.2417 28.3752 8.08333 29.4952 6.17C30.6385 4.25667 32.1668 2.76333 34.0802 1.69C36.0168 0.616666 38.1402 0.0799996 40.4502 0.0799996C42.7602 0.0799996 44.8718 0.616666 46.7852 1.69C48.7218 2.76333 50.2385 4.25667 51.3352 6.17C52.4552 8.08333 53.0152 10.2417 53.0152 12.645C53.0152 15.0483 52.4552 17.2183 51.3352 19.155C50.2152 21.0683 48.6985 22.5617 46.7852 23.635C44.8718 24.7083 42.7602 25.245 40.4502 25.245ZM40.4502 19.785C42.4102 19.785 43.9735 19.1317 45.1402 17.825C46.3302 16.5183 46.9252 14.7917 46.9252 12.645C46.9252 10.475 46.3302 8.74833 45.1402 7.465C43.9735 6.15833 42.4102 5.505 40.4502 5.505C38.4668 5.505 36.8802 6.14667 35.6902 7.43C34.5235 8.71333 33.9402 10.4517 33.9402 12.645C33.9402 14.815 34.5235 16.5533 35.6902 17.86C36.8802 19.1433 38.4668 19.785 40.4502 19.785ZM13.79 45.245C11.48 45.245 9.35667 44.7083 7.42 43.635C5.50667 42.5617 3.97833 41.0683 2.835 39.155C1.715 37.2183 1.155 35.0483 1.155 32.645C1.155 30.2417 1.715 28.0833 2.835 26.17C3.97833 24.2567 5.50667 22.7633 7.42 21.69C9.35667 20.6167 11.48 20.08 13.79 20.08C16.1 20.08 18.2117 20.6167 20.125 21.69C22.0617 22.7633 23.5783 24.2567 24.675 26.17C25.795 28.0833 26.355 30.2417 26.355 32.645C26.355 35.0483 25.795 37.2183 24.675 39.155C23.555 41.0683 22.0383 42.5617 20.125 43.635C18.2117 44.7083 16.1 45.245 13.79 45.245ZM13.79 39.785C15.75 39.785 17.3133 39.1317 18.48 37.825C19.67 36.5183 20.265 34.7917 20.265 32.645C20.265 30.475 19.67 28.7483 18.48 27.465C17.3133 26.1583 15.75 25.505 13.79 25.505C11.8067 25.505 10.22 26.1467 9.03 27.43C7.86333 28.7133 7.28 30.4517 7.28 32.645C7.28 34.815 7.86333 36.5533 9.03 37.86C10.22 39.1433 11.8067 39.785 13.79 39.785ZM28.6696 32.68C28.6696 30.2533 29.1946 28.095 30.2446 26.205C31.2946 24.2917 32.753 22.81 34.6196 21.76C36.5096 20.6867 38.6446 20.15 41.0246 20.15C43.9413 20.15 46.438 20.92 48.5146 22.46C50.5913 24 51.9796 26.1 52.6796 28.76H46.0996C45.6096 27.7333 44.9096 26.9517 43.9996 26.415C43.113 25.8783 42.098 25.61 40.9546 25.61C39.1113 25.61 37.618 26.2517 36.4746 27.535C35.3313 28.8183 34.7596 30.5333 34.7596 32.68C34.7596 34.8267 35.3313 36.5417 36.4746 37.825C37.618 39.1083 39.1113 39.75 40.9546 39.75C42.098 39.75 43.113 39.4817 43.9996 38.945C44.9096 38.4083 45.6096 37.6267 46.0996 36.6H52.6796C51.9796 39.26 50.5913 41.36 48.5146 42.9C46.438 44.4167 43.9413 45.175 41.0246 45.175C38.6446 45.175 36.5096 44.65 34.6196 43.6C32.753 42.5267 31.2946 41.045 30.2446 39.155C29.1946 37.265 28.6696 35.1067 28.6696 32.68Z" fill="#23BE87"/>
</svg>
