<svg width="21" height="21" viewBox="0 0 21 21" fill="black" xmlns="http://www.w3.org/2000/svg">
<path d="M10.4999 0.083334C4.74992 0.083334 0.083252 4.75 0.083252 10.5C0.083252 16.25 4.74992 20.9167 10.4999 20.9167C16.2499 20.9167 20.9166 16.25 20.9166 10.5C20.9166 4.75 16.2499 0.083334 10.4999 0.083334ZM10.4999 4.25C12.5103 4.25 14.1458 5.88542 14.1458 7.89583C14.1458 9.90625 12.5103 11.5417 10.4999 11.5417C8.4895 11.5417 6.85409 9.90625 6.85409 7.89583C6.85409 5.88542 8.4895 4.25 10.4999 4.25ZM10.4999 18.8333C8.38534 18.8333 5.88534 17.9792 4.10409 15.8333C5.8645 14.4583 8.08325 13.625 10.4999 13.625C12.9166 13.625 15.1353 14.4583 16.8958 15.8333C15.1145 17.9792 12.6145 18.8333 10.4999 18.8333Z" fill="white"/>
</svg>
