<svg width="20" height="15" viewBox="0 0 12 8" fill="none" xmlns="http://www.w3.org/2000/svg">
<path d="M0.931541 0.446693L5.61654 6.21044C5.71876 6.33685 5.85675 6.40776 6.00054 6.40776C6.14433 6.40776 6.28232 6.33685 6.38454 6.21044L11.0695 0.447944C11.1724 0.321599 11.3108 0.250803 11.455 0.250803C11.5992 0.250803 11.7377 0.321599 11.8405 0.447944C11.8912 0.509665 11.9314 0.583435 11.9589 0.664906C11.9864 0.746377 12.0006 0.833901 12.0006 0.922319C12.0006 1.01074 11.9864 1.09826 11.9589 1.17973C11.9314 1.2612 11.8912 1.33497 11.8405 1.39669L7.15654 7.15919C6.84802 7.53785 6.43292 7.75 6.00054 7.75C5.56816 7.75 5.15306 7.53785 4.84454 7.15919L0.160541 1.39669C0.109739 1.33495 0.0693569 1.26111 0.0417821 1.17952C0.0142074 1.09793 0 1.01026 0 0.921693C0 0.833124 0.0142074 0.745455 0.0417821 0.663868C0.0693569 0.582282 0.109739 0.508434 0.160541 0.446693C0.263396 0.320348 0.401834 0.249553 0.546041 0.249553C0.690248 0.249553 0.828686 0.320348 0.931541 0.446693Z" fill="black"/>
</svg>
