<svg width="20" height="20" viewBox="0 0 20 20" fill="none" xmlns="http://www.w3.org/2000/svg">
<path fill-rule="evenodd" clip-rule="evenodd" d="M17.9666 4.36679C18.2007 4.60116 18.3322 4.91887 18.3322 5.25012C18.3322 5.58137 18.2007 5.89908 17.9666 6.13345L7.80498 16.2951C7.68767 16.4123 7.54821 16.505 7.39473 16.5678C7.24125 16.6305 7.07682 16.6622 6.911 16.6608C6.74519 16.6594 6.58131 16.625 6.42891 16.5596C6.27651 16.4943 6.13863 16.3993 6.02331 16.2801L2.01831 12.1401C1.78991 11.9015 1.66527 11.5821 1.67162 11.2518C1.67797 10.9215 1.8148 10.6072 2.05221 10.3775C2.28961 10.1478 2.60829 10.0214 2.9386 10.026C3.26891 10.0305 3.58399 10.1656 3.81498 10.4018L6.93664 13.6285L16.2 4.36679C16.4344 4.1327 16.7521 4.00122 17.0833 4.00122C17.4146 4.00122 17.7323 4.1327 17.9666 4.36679Z" fill="currentColor"/>
</svg>
