<svg width="12" height="8" viewBox="0 0 12 8" fill="none" xmlns="http://www.w3.org/2000/svg">
<path d="M11.0685 7.55331L6.38346 1.78956C6.28124 1.66315 6.14325 1.59224 5.99946 1.59224C5.85567 1.59224 5.71768 1.66315 5.61546 1.78956L0.930459 7.55206C0.827603 7.6784 0.689166 7.7492 0.544959 7.7492C0.400752 7.7492 0.262315 7.6784 0.159459 7.55206C0.10881 7.49034 0.0685587 7.41657 0.0410748 7.33509C0.0135908 7.25362 -0.00056839 7.1661 -0.00056839 7.07768C-0.00056839 6.98926 0.0135908 6.90174 0.0410748 6.82027C0.0685587 6.7388 0.10881 6.66503 0.159459 6.60331L4.84346 0.840807C5.15198 0.462149 5.56708 0.25 5.99946 0.25C6.43184 0.25 6.84694 0.462149 7.15546 0.840807L11.8395 6.60331C11.8903 6.66505 11.9306 6.73889 11.9582 6.82048C11.9858 6.90207 12 6.98974 12 7.07831C12 7.16688 11.9858 7.25454 11.9582 7.33613C11.9306 7.41772 11.8903 7.49157 11.8395 7.55331C11.7366 7.67965 11.5982 7.75045 11.454 7.75045C11.3098 7.75045 11.1713 7.67965 11.0685 7.55331Z" fill="black"/>
</svg>
