<svg width="25" height="25" viewBox="0 0 25 25" fill="none" xmlns="http://www.w3.org/2000/svg">
<rect width="25" height="25" fill="white"/>
<path d="M18.1665 9.71867H17.0207V6.66659C17.0207 5.46759 16.5444 4.31769 15.6965 3.46987C14.8487 2.62205 13.6988 2.14575 12.4998 2.14575C11.3008 2.14575 10.1509 2.62205 9.30312 3.46987C8.4553 4.31769 7.979 5.46759 7.979 6.66659V9.71867H6.83317C6.1425 9.71867 5.48012 9.99304 4.99175 10.4814C4.50337 10.9698 4.229 11.6322 4.229 12.3228V20.2499C4.23093 20.94 4.50591 21.6013 4.99387 22.0892C5.48183 22.5772 6.14309 22.8522 6.83317 22.8541H18.1665C18.8566 22.8522 19.5178 22.5772 20.0058 22.0892C20.4938 21.6013 20.7687 20.94 20.7707 20.2499V12.3228C20.7707 11.6322 20.4963 10.9698 20.0079 10.4814C19.5196 9.99304 18.8572 9.71867 18.1665 9.71867ZM9.02067 6.66659C9.02067 5.74385 9.38722 4.85891 10.0397 4.20644C10.6922 3.55397 11.5771 3.18742 12.4998 3.18742C13.4226 3.18742 14.3075 3.55397 14.96 4.20644C15.6124 4.85891 15.979 5.74385 15.979 6.66659V9.71867H9.02067V6.66659ZM19.729 20.2499C19.7263 20.6635 19.5608 21.0593 19.2683 21.3518C18.9759 21.6442 18.5801 21.8097 18.1665 21.8124H6.83317C6.41961 21.8097 6.02377 21.6442 5.73133 21.3518C5.4389 21.0593 5.2734 20.6635 5.27067 20.2499V12.3228C5.27067 11.9084 5.43529 11.511 5.72832 11.218C6.02134 10.925 6.41877 10.7603 6.83317 10.7603H18.1665C18.5809 10.7603 18.9783 10.925 19.2714 11.218C19.5644 11.511 19.729 11.9084 19.729 12.3228V20.2499Z" fill="#666666" fill-opacity="0.6"/>
<path d="M13.5418 15.5729C13.5429 15.7551 13.4951 15.9343 13.4035 16.0918C13.312 16.2494 13.1799 16.3795 13.021 16.4688V18.0312C13.021 18.1694 12.9661 18.3019 12.8685 18.3995C12.7708 18.4972 12.6383 18.5521 12.5002 18.5521C12.362 18.5521 12.2296 18.4972 12.1319 18.3995C12.0342 18.3019 11.9793 18.1694 11.9793 18.0312V16.4688C11.8205 16.3795 11.6884 16.2494 11.5968 16.0918C11.5052 15.9343 11.4575 15.7551 11.4585 15.5729C11.4585 15.2966 11.5683 15.0317 11.7636 14.8363C11.959 14.641 12.2239 14.5312 12.5002 14.5312C12.7764 14.5312 13.0414 14.641 13.2367 14.8363C13.4321 15.0317 13.5418 15.2966 13.5418 15.5729Z" fill="#666666" fill-opacity="0.6"/>
</svg>
