<svg width="25" height="25" viewBox="0 0 25 25" fill="none" xmlns="http://www.w3.org/2000/svg">
<path d="M12.5 13.75C13.4946 13.75 14.4484 13.3549 15.1517 12.6517C15.8549 11.9484 16.25 10.9946 16.25 10C16.25 9.00544 15.8549 8.05161 15.1517 7.34835C14.4484 6.64509 13.4946 6.25 12.5 6.25C11.5054 6.25 10.5516 6.64509 9.84835 7.34835C9.14509 8.05161 8.75 9.00544 8.75 10C8.75 10.9946 9.14509 11.9484 9.84835 12.6517C10.5516 13.3549 11.5054 13.75 12.5 13.75ZM12.5 15C11.1739 15 9.90215 14.4732 8.96447 13.5355C8.02678 12.5979 7.5 11.3261 7.5 10C7.5 8.67392 8.02678 7.40215 8.96447 6.46447C9.90215 5.52678 11.1739 5 12.5 5C13.8261 5 15.0979 5.52678 16.0355 6.46447C16.9732 7.40215 17.5 8.67392 17.5 10C17.5 11.3261 16.9732 12.5979 16.0355 13.5355C15.0979 14.4732 13.8261 15 12.5 15ZM18.75 21.25V19.375C18.75 18.8777 18.5525 18.4008 18.2008 18.0492C17.8492 17.6975 17.3723 17.5 16.875 17.5H8.125C7.62772 17.5 7.15081 17.6975 6.79917 18.0492C6.44754 18.4008 6.25 18.8777 6.25 19.375V21.25C6.25 21.4158 6.18415 21.5747 6.06694 21.6919C5.94973 21.8092 5.79076 21.875 5.625 21.875C5.45924 21.875 5.30027 21.8092 5.18306 21.6919C5.06585 21.5747 5 21.4158 5 21.25V19.375C5 18.5462 5.32924 17.7513 5.91529 17.1653C6.50134 16.5792 7.2962 16.25 8.125 16.25H16.875C17.7038 16.25 18.4987 16.5792 19.0847 17.1653C19.6708 17.7513 20 18.5462 20 19.375V21.25C20 21.4158 19.9342 21.5747 19.8169 21.6919C19.6997 21.8092 19.5408 21.875 19.375 21.875C19.2092 21.875 19.0503 21.8092 18.9331 21.6919C18.8158 21.5747 18.75 21.4158 18.75 21.25Z" fill="#666666" fill-opacity="0.6"/>
</svg>
